<svg width="512" height="512" xmlns="http://www.w3.org/2000/svg">

 <g>
  <title>background</title>
  <rect fill="none" id="canvas_background" height="402" width="582" y="-1" x="-1"/>
 </g>
 <g>
  <title>Layer 1</title>
  <path fill="#f6b26b" id="svg_2" d="m154.8,424.7l202.4,0c12.8,0 23.2,-10.4 23.2,-23.2l0,-262.2c0,-12.8 -10.4,-23.2 -23.2,-23.2l-29.8,0l0,-21.3c0,-4.1 -3.4,-7.5 -7.5,-7.5s-7.5,3.4 -7.5,7.5l0,21.3l-48.9,0l0,-21.3c0,-4.1 -3.4,-7.5 -7.5,-7.5s-7.5,3.4 -7.5,7.5l0,21.3l-48.9,0l0,-21.3c0,-4.1 -3.4,-7.5 -7.5,-7.5s-7.5,3.4 -7.5,7.5l0,21.3l-29.8,0c-12.8,0 -23.2,10.4 -23.2,23.2l0,262.1c0,12.8 10.4,23.3 23.2,23.3zm-8.2,-285.4c0,-4.5 3.7,-8.2 8.2,-8.2l29.8,0l0,21.5c0,4.1 3.4,7.5 7.5,7.5s7.5,-3.4 7.5,-7.5l0,-21.5l48.9,0l0,21.5c0,4.1 3.4,7.5 7.5,7.5s7.5,-3.4 7.5,-7.5l0,-21.5l48.9,0l0,21.5c0,4.1 3.4,7.5 7.5,7.5s7.5,-3.4 7.5,-7.5l0,-21.5l29.8,0c4.5,0 8.2,3.7 8.2,8.2l0,262.1c0,4.5 -3.7,8.2 -8.2,8.2l-202.4,0c-4.5,0 -8.2,-3.7 -8.2,-8.2l0,-262.1z"/>
  <path fill="#efefef" id="svg_3" d="m181.9,219.4c1.5,1.5 3.4,2.2 5.3,2.2c1.9,0 3.8,-0.7 5.3,-2.2l26.5,-26.5c2.9,-2.9 2.9,-7.7 0,-10.6c-2.9,-2.9 -7.7,-2.9 -10.6,0l-21.2,21.2l-7.7,-7.7c-2.9,-2.9 -7.7,-2.9 -10.6,0c-2.9,2.9 -2.9,7.7 0,10.6l13,13z"/>
  <path fill="#efefef" id="svg_4" d="m238.1,208.3l99.7,0c4.1,0 7.5,-3.4 7.5,-7.5s-3.4,-7.5 -7.5,-7.5l-99.7,0c-4.1,0 -7.5,3.4 -7.5,7.5s3.4,7.5 7.5,7.5z"/>
  <path fill="#efefef" id="svg_5" d="m181.9,289c1.5,1.5 3.4,2.2 5.3,2.2c1.9,0 3.8,-0.7 5.3,-2.2l26.5,-26.5c2.9,-2.9 2.9,-7.7 0,-10.6s-7.7,-2.9 -10.6,0l-21.2,21.1l-7.7,-7.7c-2.9,-2.9 -7.7,-2.9 -10.6,0c-2.9,2.9 -2.9,7.7 0,10.6l13,13.1z"/>
  <path fill="#efefef" id="svg_6" d="m238.1,277.9l99.7,0c4.1,0 7.5,-3.4 7.5,-7.5s-3.4,-7.5 -7.5,-7.5l-99.7,0c-4.1,0 -7.5,3.4 -7.5,7.5s3.4,7.5 7.5,7.5z"/>
  <path fill="#efefef" id="svg_7" d="m181.9,358.5c1.5,1.5 3.4,2.2 5.3,2.2c1.9,0 3.8,-0.7 5.3,-2.2l26.5,-26.5c2.9,-2.9 2.9,-7.7 0,-10.6s-7.7,-2.9 -10.6,0l-21.2,21.2l-7.7,-7.7c-2.9,-2.9 -7.7,-2.9 -10.6,0c-2.9,2.9 -2.9,7.7 0,10.6l13,13z"/>
  <path fill="#efefef" id="svg_8" d="m238.1,347.5l99.7,0c4.1,0 7.5,-3.4 7.5,-7.5s-3.4,-7.5 -7.5,-7.5l-99.7,0c-4.1,0 -7.5,3.4 -7.5,7.5s3.4,7.5 7.5,7.5z"/>
 </g>
</svg>